<?xml version="1.0" standalone="no"?>
<!DOCTYPE svg PUBLIC "-//W3C//DTD SVG 20010904//EN"
 "http://www.w3.org/TR/2001/REC-SVG-20010904/DTD/svg10.dtd">
<svg version="1.0" xmlns="http://www.w3.org/2000/svg"
 width="640.000000pt" height="640.000000pt" viewBox="0 0 640.000000 640.000000"
 preserveAspectRatio="xMidYMid meet">

<g transform="translate(0.000000,640.000000) scale(0.100000,-0.100000)"
fill="#000000" stroke="none">
<path d="M3600 5353 c-74 -42 -137 -78 -140 -80 -3 -3 -7 -378 -10 -835 l-5
-831 -105 80 -105 80 -3 687 c-2 523 -5 686 -14 686 -7 0 -67 -30 -135 -67
l-123 -67 0 -502 c0 -277 -3 -505 -8 -508 -4 -2 -43 25 -87 60 -44 35 -96 76
-117 90 l-36 26 -124 -75 -123 -75 2 -133 c1 -74 7 -285 13 -469 5 -184 6
-338 2 -342 -5 -5 -50 19 -100 54 -90 61 -92 62 -92 102 -1 115 -39 1379 -42
1382 -2 1 -55 -25 -118 -59 l-115 -62 0 -120 c0 -66 6 -317 14 -558 8 -240 11
-440 8 -443 -3 -3 -215 135 -471 306 -338 226 -472 311 -487 307 -27 -7 -259
-139 -259 -147 0 -8 86 -65 510 -345 157 -103 378 -249 491 -324 l207 -136 6
-65 c8 -89 8 -188 -1 -193 -5 -3 -80 43 -169 102 -88 58 -266 176 -395 261
-128 85 -380 250 -558 368 l-323 214 -112 -57 c-61 -32 -117 -64 -123 -73 -10
-12 -13 -229 -13 -1008 0 -581 4 -995 9 -998 5 -3 62 22 128 57 l118 63 3 853
c2 806 3 853 20 849 14 -4 626 -406 1254 -825 l157 -105 136 72 136 72 -7 114
c-5 78 -3 114 4 114 6 0 52 -27 102 -61 106 -70 87 -71 250 16 l112 60 -7 448
c-3 246 -3 447 2 447 4 0 52 -34 105 -75 l98 -75 2 -608 3 -607 615 0 615 0 0
125 0 125 -482 3 -483 2 0 370 c0 245 3 370 10 370 6 0 56 -35 111 -77 l101
-78 133 69 132 69 6 291 c9 388 21 1766 16 1766 -2 0 -65 -35 -139 -77z m91
-458 c-2 -242 -7 -676 -10 -965 l-6 -525 -105 -57 c-84 -45 -108 -55 -123 -46
-11 5 -64 44 -118 85 l-99 76 0 118 c0 66 3 119 7 119 3 0 57 -38 120 -85 63
-47 120 -88 128 -92 13 -4 15 109 17 858 l3 864 80 47 c44 26 87 46 95 45 13
-2 15 -57 11 -442z m-900 -841 c41 -32 95 -75 122 -96 l47 -40 0 -119 c0 -65
-3 -119 -7 -119 -4 0 -60 41 -125 90 -64 50 -120 90 -124 90 -3 0 -3 -190 2
-422 5 -233 9 -450 9 -483 l0 -60 -107 -58 -106 -58 -174 114 c-95 63 -405
267 -688 453 -648 428 -730 483 -730 492 0 5 40 30 90 56 l90 47 598 -399
c329 -220 653 -438 720 -485 67 -48 123 -83 125 -79 3 4 -2 207 -9 452 -7 245
-13 472 -13 505 l-1 60 93 57 c50 31 97 57 103 57 7 1 45 -24 85 -55z m-2319
-2105 l43 -82 5 79 c5 73 7 79 28 82 l23 3 -3 -128 c-3 -122 -4 -128 -24 -131
-18 -3 -30 12 -70 88 l-49 91 -5 -88 c-4 -73 -8 -88 -22 -91 -16 -3 -18 8 -18
127 l0 131 24 0 c20 0 32 -14 68 -81z"/>
<path d="M4823 5376 c-434 -115 -747 -570 -834 -1216 -25 -184 -7 -576 29
-612 5 -5 52 15 110 47 l101 56 -6 187 c-8 260 18 448 84 627 114 308 356 595
568 674 226 85 548 -30 728 -259 52 -66 106 -171 148 -284 20 -55 42 -102 48
-104 15 -5 182 90 189 108 7 18 -40 154 -86 245 -102 205 -261 365 -457 461
-135 65 -224 86 -390 90 -124 4 -151 1 -232 -20z"/>
<path d="M4181 3481 c-10 -10 -22 -38 -26 -62 -10 -68 -15 -79 -35 -79 -22 0
-30 19 -30 70 0 25 -5 40 -16 44 -26 10 -34 -3 -34 -59 0 -69 34 -115 85 -115
51 0 75 26 84 93 4 31 11 60 15 64 15 15 41 -16 46 -53 4 -31 9 -39 25 -39 17
0 20 8 23 48 3 41 -1 51 -27 77 -35 35 -81 40 -110 11z"/>
<path d="M4225 3250 c-109 -48 -129 -66 -105 -94 9 -11 32 -5 127 35 65 28
119 52 121 54 9 9 -9 55 -21 54 -6 0 -61 -23 -122 -49z"/>
<path d="M4278 3132 c-105 -66 -123 -87 -95 -110 10 -8 28 -1 72 27 33 20 66
41 74 46 13 7 -30 -77 -66 -130 -17 -26 -17 -60 2 -75 12 -10 31 -2 107 45
129 78 131 80 123 104 -9 30 -23 27 -95 -20 -34 -22 -64 -39 -66 -37 -1 2 17
37 41 78 24 41 44 82 44 90 0 14 -22 51 -30 50 -2 -1 -52 -31 -111 -68z"/>
<path d="M5511 2984 c-25 -18 -55 -79 -46 -94 10 -16 45 -11 45 5 0 8 9 24 20
35 43 43 80 -15 80 -124 0 -94 13 -98 87 -24 35 34 63 68 63 74 0 25 -33 24
-61 -2 -31 -30 -34 -27 -44 41 -14 87 -84 131 -144 89z"/>
<path d="M4475 2934 c-86 -45 -119 -132 -76 -198 35 -53 111 -77 111 -36 0 11
-8 23 -17 27 -62 22 -70 78 -19 129 48 48 98 47 125 -3 16 -31 51 -31 51 0 0
48 -60 97 -117 97 -15 0 -41 -7 -58 -16z"/>
<path d="M5329 2831 c-31 -32 -39 -71 -14 -71 9 0 26 12 39 26 17 20 28 25 44
20 30 -10 37 -48 24 -128 -15 -88 -15 -98 3 -98 26 0 145 84 145 102 0 28 -18
31 -55 8 l-35 -22 0 70 c0 90 -22 122 -81 122 -31 0 -47 -7 -70 -29z"/>
<path d="M4649 2778 c-17 -35 -45 -87 -61 -116 -16 -30 -28 -55 -26 -57 17
-16 149 -75 157 -70 24 14 10 42 -29 60 -49 22 -54 29 -40 55 12 23 35 25 70
5 18 -9 29 -10 37 -3 22 18 15 34 -22 51 -23 11 -35 24 -35 37 0 31 23 34 69
10 44 -22 61 -20 61 8 0 17 -111 83 -137 82 -7 0 -27 -28 -44 -62z"/>
<path d="M5169 2765 c-54 -29 -62 -111 -19 -195 35 -69 93 -89 143 -50 34 27
42 78 23 143 -25 87 -92 133 -147 102z m86 -98 c23 -60 17 -111 -13 -115 -18
-3 -26 5 -41 40 -28 65 -33 105 -15 123 23 22 49 4 69 -48z"/>
<path d="M4970 2743 c-34 -10 -60 -27 -60 -39 0 -18 27 -25 55 -12 19 8 28 8
40 -2 30 -25 17 -59 -46 -125 -82 -85 -77 -95 41 -95 89 0 90 0 90 25 0 23 -4
25 -40 25 -46 0 -52 16 -19 46 52 47 64 117 27 151 -25 22 -64 34 -88 26z"/>
<path d="M655 2008 c-3 -13 -5 -68 -3 -123 l3 -100 73 -3 c58 -2 72 0 72 12 0
11 -14 16 -52 18 l-53 3 0 35 c0 34 1 35 43 38 34 3 43 7 40 20 -2 12 -12 16
-34 14 -38 -4 -59 18 -50 53 6 23 11 25 56 25 38 0 50 4 50 15 0 12 -14 15
-70 15 -64 0 -70 -2 -75 -22z"/>
<path d="M870 1994 c-1 -83 -2 -190 -1 -201 1 -7 7 -13 15 -13 14 0 26 29 26
68 0 17 6 22 24 22 60 0 105 35 106 81 0 50 -30 72 -104 77 l-66 4 0 -38z
m114 -10 c33 -33 14 -75 -34 -77 -28 -2 -34 2 -41 25 -12 44 -1 68 31 68 16 0
36 -7 44 -16z"/>
<path d="M1087 1913 c-42 -135 -42 -133 -21 -133 8 0 20 13 25 29 8 22 18 30
45 34 47 8 62 1 69 -34 5 -20 13 -29 26 -29 25 0 24 5 -19 135 -33 99 -39 110
-63 113 -24 3 -27 -2 -62 -115z m79 32 c21 -52 18 -65 -16 -65 -17 0 -30 5
-30 13 0 19 20 87 26 87 3 0 12 -16 20 -35z"/>
<path d="M1297 2023 c-4 -3 -7 -60 -7 -125 l0 -118 76 0 c56 0 75 3 72 13 -3
6 -27 14 -54 17 l-49 5 -3 108 c-2 80 -6 107 -16 107 -7 0 -16 -3 -19 -7z"/>
<path d="M1550 2013 c0 -10 10 -67 21 -126 22 -106 23 -108 48 -105 24 3 27
10 45 86 10 46 21 80 25 77 3 -3 15 -41 26 -83 18 -70 23 -77 46 -80 26 -3 27
-2 48 110 25 133 25 138 7 138 -17 0 -21 -12 -37 -105 -6 -38 -14 -74 -18 -78
-4 -4 -16 29 -26 73 -10 45 -24 89 -32 98 -12 16 -14 16 -26 0 -7 -9 -21 -54
-31 -98 -10 -45 -20 -79 -23 -76 -4 3 -14 45 -23 94 -12 65 -21 88 -33 90 -11
2 -17 -3 -17 -15z"/>
<path d="M1921 2016 c-80 -44 -63 -214 24 -238 64 -17 117 14 135 82 23 87
-24 170 -97 170 -21 -1 -49 -7 -62 -14z m99 -34 c19 -15 23 -28 22 -76 0 -59
-12 -83 -47 -96 -45 -17 -84 26 -85 93 0 79 58 121 110 79z"/>
<path d="M2149 2013 c-2 -10 -3 -66 -1 -125 3 -85 6 -108 17 -108 14 0 21 19
27 70 5 43 32 35 62 -20 18 -33 34 -50 47 -50 24 0 24 0 -3 54 l-21 44 21 27
c29 36 28 70 -3 100 -20 21 -34 25 -83 25 -49 0 -60 -3 -63 -17z m112 -23 c21
-12 25 -50 7 -68 -7 -7 -27 -12 -45 -12 -32 0 -33 1 -33 45 0 42 2 45 26 45
14 0 34 -5 45 -10z"/>
<path d="M2380 1906 l0 -126 70 0 c56 0 70 3 70 15 0 11 -12 15 -50 15 l-49 0
-3 107 c-3 93 -5 108 -20 111 -16 3 -18 -8 -18 -122z"/>
<path d="M2580 1906 l0 -126 49 0 c27 0 61 4 75 10 34 13 56 59 56 119 0 42
-5 56 -29 83 -24 27 -36 32 -90 36 l-61 4 0 -126z m115 69 c53 -52 19 -165
-50 -165 l-25 0 0 95 0 95 25 0 c14 0 37 -11 50 -25z"/>
<path d="M2900 1905 l0 -125 70 0 c56 0 70 3 70 15 0 11 -12 15 -50 15 l-50 0
0 110 c0 103 -1 110 -20 110 -19 0 -20 -7 -20 -125z"/>
<path d="M3145 2021 c-8 -14 -75 -220 -75 -232 0 -22 32 -6 42 21 18 53 84 55
108 3 14 -31 51 -46 49 -20 0 6 -17 62 -37 122 -31 91 -41 111 -59 113 -11 2
-24 -2 -28 -7z m38 -58 c2 -5 7 -25 11 -45 7 -37 6 -38 -25 -38 -31 0 -31 1
-24 37 4 21 9 41 11 45 7 10 22 10 27 1z"/>
<path d="M3314 2017 c-2 -7 -3 -62 -2 -123 3 -94 5 -109 21 -112 15 -3 17 6
17 84 0 101 2 101 63 -7 30 -54 48 -75 65 -77 l23 -3 -3 123 c-3 101 -6 123
-18 123 -12 0 -16 -18 -20 -85 l-5 -85 -43 72 c-23 39 -45 79 -48 87 -7 19
-43 21 -50 3z"/>
<path d="M3598 2001 c-27 -24 -32 -36 -35 -87 -3 -46 0 -66 16 -91 26 -42 83
-60 134 -44 30 10 35 17 38 49 7 72 2 82 -42 82 -43 0 -57 -26 -16 -32 17 -2
22 -10 22 -33 0 -27 -3 -30 -36 -33 -30 -3 -41 2 -58 24 -31 39 -29 107 5 141
22 22 31 24 70 18 24 -3 44 -2 44 2 0 20 -27 33 -67 33 -33 0 -50 -7 -75 -29z"/>
<path d="M3822 1927 c2 -85 7 -109 22 -125 37 -42 116 -37 144 9 15 23 27 157
18 194 -4 14 -13 25 -21 25 -12 0 -15 -17 -15 -88 0 -102 -14 -132 -60 -132
-41 0 -50 24 -53 127 -2 76 -4 88 -20 91 -18 4 -19 -4 -15 -101z"/>
<path d="M4086 1922 c-20 -59 -36 -115 -36 -125 0 -29 25 -19 41 15 23 53 89
51 107 -2 12 -32 42 -42 42 -14 0 10 -16 66 -36 125 -32 96 -39 109 -60 109
-20 0 -27 -13 -58 -108z m80 1 l7 -43 -33 0 c-29 0 -32 2 -26 25 22 86 40 92
52 18z"/>
<path d="M4312 2000 c-64 -64 -47 -175 32 -214 36 -17 43 -18 80 -5 l41 14 0
55 0 55 -37 3 c-29 2 -38 0 -38 -12 0 -9 9 -16 20 -16 16 0 20 -7 20 -35 0
-34 -1 -35 -38 -35 -62 0 -92 54 -72 129 13 48 43 66 99 56 26 -4 41 -3 41 4
0 17 -36 31 -79 31 -30 0 -46 -7 -69 -30z"/>
<path d="M4535 2017 c-3 -7 -4 -62 -3 -123 l3 -109 73 -3 c58 -2 72 0 72 12 0
11 -14 16 -52 18 l-53 3 0 35 c0 34 1 35 43 38 28 2 42 8 42 18 0 8 -10 14
-22 14 -50 0 -68 11 -68 40 0 32 14 40 72 40 27 0 38 4 36 13 -7 18 -137 22
-143 4z"/>
<path d="M4858 2010 c-35 -27 -51 -72 -46 -125 7 -60 30 -92 77 -106 30 -9 44
-9 66 2 49 24 43 39 -13 32 -45 -5 -50 -3 -71 23 -30 38 -25 118 9 146 24 20
65 24 75 8 5 -8 12 -7 22 1 13 11 13 14 -3 26 -27 19 -88 16 -116 -7z"/>
<path d="M5050 1905 l0 -125 76 0 c56 0 75 3 72 13 -3 6 -27 14 -54 17 -48 5
-49 5 -52 43 l-3 37 40 0 c42 0 63 16 40 31 -8 5 -29 9 -47 9 -31 0 -33 2 -30
33 3 30 5 32 51 37 74 8 61 25 -20 28 l-73 3 0 -126z"/>
<path d="M5260 1905 c0 -115 2 -126 18 -123 14 3 17 15 18 81 0 42 3 80 6 83
4 3 27 -33 53 -81 39 -71 51 -86 69 -83 20 3 21 8 21 123 0 100 -2 120 -15
120 -12 0 -16 -17 -18 -82 -2 -46 -6 -83 -10 -83 -4 0 -28 37 -53 83 -32 58
-52 83 -68 85 -21 3 -21 1 -21 -123z"/>
<path d="M5500 2016 c0 -9 12 -16 33 -18 l32 -3 3 -107 c2 -99 4 -108 22 -108
18 0 20 9 22 108 l3 107 33 3 c20 2 32 9 32 18 0 11 -18 14 -90 14 -72 0 -90
-3 -90 -14z"/>
<path d="M5734 2017 c-2 -7 -3 -62 -2 -123 l3 -109 73 -3 c58 -2 72 0 72 12 0
11 -14 16 -52 18 l-53 3 0 35 c0 34 1 35 43 38 35 3 42 7 40 20 -3 9 -10 16
-18 14 -7 -2 -26 0 -42 3 -26 6 -29 11 -26 38 3 31 5 32 56 35 37 2 52 7 52
18 0 19 -138 21 -146 1z"/>
<path d="M5945 2018 c-3 -8 -4 -63 -3 -124 3 -94 5 -109 21 -112 14 -3 17 4
17 43 0 75 41 72 81 -7 13 -25 26 -38 39 -38 25 0 25 7 0 45 -25 38 -25 51 0
82 25 32 25 64 1 94 -15 19 -30 24 -85 27 -51 3 -67 1 -71 -10z m119 -34 c34
-33 4 -77 -48 -72 -33 3 -42 21 -32 64 5 18 13 24 35 24 16 0 37 -7 45 -16z"/>
</g>
</svg>
